<?xml version="1.0" standalone="no"?>
<!DOCTYPE svg PUBLIC "-//W3C//DTD SVG 1.1//EN" "http://www.w3.org/Graphics/SVG/1.1/DTD/svg11.dtd" >
<svg>
<metadata>
Created by FontForge 20090622 at Sun Nov 10 11:42:25 2019
 By deploy user
Copyright 2016 Adobe Systems Incorporated. All rights reserved.
</metadata>
<defs>
<font id="Anurati-Regular" horiz-adv-x="888" >
  <font-face 
    font-family="Anurati"
    font-weight="400"
    font-stretch="normal"
    units-per-em="1000"
    panose-1="0 0 0 0 0 0 0 0 0 0"
    ascent="800"
    descent="-200"
    cap-height="800"
    bbox="-0.0333328 0 1303 800"
    underline-thickness="50"
    underline-position="-50"
    unicode-range="U+0020-U+2260"
  />
<missing-glyph horiz-adv-x="500" 
d="M125 63h250v675h-250v-675zM63 0v800h375v-800h-375z" />
    <glyph glyph-name=".notdef" horiz-adv-x="500" 
d="M125 63h250v675h-250v-675zM63 0v800h375v-800h-375z" />
    <glyph glyph-name=".null" horiz-adv-x="0" 
 />
    <glyph glyph-name="nonmarkingreturn" horiz-adv-x="333" 
 />
    <glyph glyph-name="space" unicode=" " horiz-adv-x="250" 
 />
    <glyph glyph-name="exclam" unicode="!" horiz-adv-x="282" 
d="M134 800v-533h-134v533h134zM0 0v134h134v-134h-134z" />
    <glyph glyph-name="ampersand" unicode="&#x26;" horiz-adv-x="1036" 
d="M882 571h-527l-81 -104h526l-106 -134l-210 -267l-51 -66h-170l52 66l85 109l123 158h-354h-169l104 134l208 266l53 67h169h1l-53 -67l-22 -29h527z" />
    <glyph glyph-name="plus" unicode="+" horiz-adv-x="840" 
d="M0 467h333v-134h-333v134zM467 467h333v-134h-333v134zM333 0v333h134v-333h-134zM467 800v-333h-134v333h134z" />
    <glyph glyph-name="slash" unicode="/" 
d="M313 400h1l-314 -400zM171 0l227 292v-1zM626 800h169l-312 -400l-85 -109v1l-227 -292h-171l314 400h-1z" />
    <glyph glyph-name="A" unicode="A" horiz-adv-x="899" 
d="M332 266l-66 -132l-68 -134h-148l400 800l267 -534h-150l-117 235zM783 133l67 -133h-149l-66 133h148z" />
    <glyph glyph-name="B" unicode="B" horiz-adv-x="809" 
d="M666 567q0 -98 -70 -167q70 -67 70 -167q0 -48 -18 -90q-17 -41 -50 -74q-29 -30 -75 -51q-42 -18 -90 -18h-300v134h300q21 0 38 7q20 8 33 22q13 13 21 32t8 38t-8 38t-21 32q-16 16 -31 22q-21 8 -40 8h-300h-133v133h80h53h300q22 0 38 8q20 8 33 22q13 13 21 32
t8 39q0 19 -8 38t-21 32q-13 14 -33 22q-17 7 -38 7h-300l-133 134h433q47 0 90 -18q46 -21 75 -51q33 -33 50 -74q18 -42 18 -90z" />
    <glyph glyph-name="C" unicode="C" horiz-adv-x="720" 
d="M246 32q-71 30 -128 86q-56 57 -86 128q-32 75 -32 154q0 81 32 156q31 71 86 126q54 55 128 86q73 32 155 32q84 0 155 -31q73 -32 128 -87l-95 -93q-78 77 -188 77q-55 0 -104 -20q-49 -21 -85 -58q-36 -36 -57 -84q-21 -50 -21 -104t21 -104q21 -49 58 -84
q35 -37 84 -58q51 -20 104 -20l155 -103q-71 -31 -155 -31q-82 0 -155 32z" />
    <glyph glyph-name="D" unicode="D" horiz-adv-x="830" 
d="M635 554q31 -71 31 -154t-31 -154q-33 -74 -86 -128q-55 -54 -128 -86t-155 -32h-266l133 134h133q55 0 104 20q51 22 85 58q36 38 57 85q21 49 21 103t-21 103q-21 48 -58 85t-85 58q-49 20 -103 20h-133l-133 134h266q80 0 155 -32q73 -32 127 -86t87 -128z" />
    <glyph glyph-name="E" unicode="E" horiz-adv-x="636" 
d="M0 11l133 123h400v-134h-533v11zM0 800h533v-134h-400zM0 466h133h400v-133h-400h-133v133z" />
    <glyph glyph-name="F" unicode="F" horiz-adv-x="637" 
d="M0 401h133h400v-135h-400v-266h-133v401zM0 800h533v-134h-400z" />
    <glyph glyph-name="G" unicode="G" horiz-adv-x="875" 
d="M511 157q52 24 90 67l133 -44q-29 -43 -64 -74q-37 -34 -79 -57q-42 -24 -91 -36q-46 -13 -100 -13q-164 0 -282 118t-118 282q0 165 118 282q115 118 282 118q84 0 156 -31q73 -32 128 -87l-96 -94q-78 78 -188 78q-111 0 -189 -78q-77 -77 -77 -188q0 -112 77 -189
t189 -77q59 0 111 23zM400 333v133h334l-133 -133h-201z" />
    <glyph glyph-name="H" unicode="H" horiz-adv-x="819" 
d="M533 800h133v-800h-133v333h-400v-333h-133v333l133 134h400v333z" />
    <glyph glyph-name="I" unicode="I" horiz-adv-x="140" 
d="M133 668v-534l-133 -134v800z" />
    <glyph glyph-name="J" unicode="J" horiz-adv-x="615" 
d="M378 77l-37 36l-59 59q40 39 40 94v534h135v-534q0 -108 -79 -189v0zM189 0zM96 173q39 -39 93 -39v-134q-110 0 -189 77zM341 113l37 -36z" />
    <glyph glyph-name="K" unicode="K" horiz-adv-x="705" 
d="M56 344l346 -344zM402 800l-346 -345zM590 800l-400 -400l400 -400h-188l-346 344l-56 55l56 56l346 345h188z" />
    <glyph glyph-name="L" unicode="L" horiz-adv-x="616" 
d="M133 134h400v-134h-533zM0 800h133v-22v-463l-133 -134v597v22z" />
    <glyph glyph-name="M" unicode="M" horiz-adv-x="954" 
d="M0 614v186l401 -400l400 400v-800h-132v478l-268 -267z" />
    <glyph glyph-name="N" unicode="N" horiz-adv-x="818" 
d="M532 800h133v-798v-1v-1l-665 598v202l532 -479v479z" />
    <glyph glyph-name="O" unicode="O" horiz-adv-x="965" 
d="M400 800q164 0 282 -118q119 -117 119 -282q0 -166 -119 -282q-118 -118 -282 -118t-282 118t-118 282t118 282q116 118 282 118zM400 666q-111 0 -189 -78q-77 -77 -77 -188q0 -112 77 -189t189 -77q111 0 188 77q78 78 78 189q0 110 -78 188t-188 78z" />
    <glyph glyph-name="P" unicode="P" horiz-adv-x="780" 
d="M588 722q78 -80 78 -189q0 -112 -78 -189q-78 -78 -188 -78h-267v-266h-133v400h133h267q54 0 93 39q40 40 40 94q0 55 -40 94q-39 39 -93 39h-267l-133 134h400q110 0 188 -78z" />
    <glyph glyph-name="Q" unicode="Q" horiz-adv-x="962" 
d="M400 0q-168 0 -284 116q-118 118 -116 284q2 169 117 283q116 117 283 117t283 -117q117 -117 117 -283q0 -132 -74 -233l-97 97q38 61 38 137q0 108 -78 188q-81 79 -189 79t-189 -79q-78 -80 -78 -188q0 -110 78 -190q79 -77 189 -77q75 0 135 36l97 -97
q-100 -73 -232 -73z" />
    <glyph glyph-name="R" unicode="R" horiz-adv-x="761" 
d="M570 383q-46 -67 -117 -96l164 -287h-153l-232 401l119 -1q54 0 93 39q40 39 40 95q0 54 -40 93q-39 39 -93 39h-267l-15 15l-69 119h351q110 0 188 -78q78 -79 78 -188q0 -85 -47 -151z" />
    <glyph glyph-name="S" unicode="S" horiz-adv-x="803" 
d="M432 333h-199q-97 0 -165 68q-68 70 -68 166q0 94 68 164q68 69 165 69v-134q-22 0 -39 -7q-18 -7 -33 -22q-13 -13 -21 -32q-7 -17 -7 -38q0 -42 28 -71q30 -30 72 -30h199q97 0 165 -68q69 -69 69 -165t-69 -165q-68 -68 -165 -68v134q22 0 39 7q19 7 33 21t21 32
q8 19 8 39q0 38 -30 70q-30 30 -71 30z" />
    <glyph glyph-name="T" unicode="T" horiz-adv-x="510" 
d="M0 800h400v-134h-266v-666h-134v666v134z" />
    <glyph glyph-name="U" unicode="U" horiz-adv-x="782" 
d="M533 333h133q0 -139 -98 -236q-97 -97 -236 -97q-138 0 -235 97t-97 236v467h133v-467q0 -83 57 -140q58 -59 142 -59q82 0 141 59q60 60 60 140z" />
    <glyph glyph-name="V" unicode="V" horiz-adv-x="592" 
d="M0 800h149l326 -651l-75 -149z" />
    <glyph glyph-name="W" unicode="W" horiz-adv-x="1417" 
d="M149 800l252 -501l-75 -150l-326 651h149zM1154 800h149l-400 -800l-252 501l75 150l177 -352z" />
    <glyph glyph-name="X" unicode="X" horiz-adv-x="919" 
d="M171 800l227 -292l-84 -108l-314 400h171zM0 0l314 400l84 -108l-227 -292h-171zM795 800l-312 -400l-85 108l228 292h169zM398 292l85 108l312 -400h-169z" />
    <glyph glyph-name="Y" unicode="Y" 
d="M483 400l-85 -109v1l-227 -292h-171l314 400l-314 400h171l227 -292l228 292h169zM398 292v-1l-227 -291z" />
    <glyph glyph-name="Z" unicode="Z" horiz-adv-x="846" 
d="M522 666h-522v134h795zM274 134h527v-134h-801z" />
    <glyph glyph-name="bracketleft" unicode="[" horiz-adv-x="420" 
d="M400 666h-266v-532h266v-134h-266h-134v666v134h400v-134z" />
    <glyph glyph-name="backslash" unicode="\" 
d="M313 400h1l-314 -400zM171 0l227 292v-1zM626 800h169l-312 -400l-85 -109v1l-227 -292h-171l314 400h-1z" />
    <glyph glyph-name="bracketright" unicode="]" horiz-adv-x="553" 
d="M266 666h-266v134h400v-134v-666h-134h-266v134h266v532z" />
    <glyph glyph-name="asciitilde" unicode="~" horiz-adv-x="840" 
d="M631 467h169l-104 -134l-208 -266l-52 -67h-170h-1l53 67l208 266h-526l106 134l210 267l51 66h170l-52 -66l-85 -109l-123 -158h354z" />
    <glyph glyph-name="dagger" unicode="&#x2020;" horiz-adv-x="666" 
d="M635 592v-134h-251v-458h-133v458h-251v134h251v208h133v-208h251z" />
    <glyph glyph-name="notequal" unicode="&#x2260;" horiz-adv-x="840" 
d="M628 800h170l-156 -200h-170zM263 333h1l-105 -133h169l72 92v-1l33 42h367v-133h-471l-156 -200h-171l157 200h-159v133h263zM0 467v133h472l-104 -133h-368zM642 600h158v-133h-263z" />
    </font>
</defs>
</svg>
